<?xml version="1.0" encoding="UTF-8" ?>
<svg version="1.1" width="64" height="64" xmlns="http://www.w3.org/2000/svg" shape-rendering="crispEdges">
<rect x="30" y="6" width="4" height="2" fill="#BFAE91" />
<rect x="29" y="7" width="1" height="2" fill="#BFAE91" />
<rect x="34" y="7" width="1" height="2" fill="#BFAE91" />
<rect x="28" y="8" width="1" height="2" fill="#BFAE91" />
<rect x="30" y="8" width="4" height="7" fill="#E4D0AD" />
<rect x="35" y="8" width="1" height="2" fill="#BFAE91" />
<rect x="27" y="9" width="1" height="2" fill="#BFAE91" />
<rect x="29" y="9" width="1" height="10" fill="#E4D0AD" />
<rect x="34" y="9" width="1" height="5" fill="#E4D0AD" />
<rect x="36" y="9" width="1" height="2" fill="#BFAE91" />
<rect x="26" y="10" width="1" height="7" fill="#BFAE91" />
<rect x="28" y="10" width="1" height="13" fill="#E4D0AD" />
<rect x="35" y="10" width="1" height="3" fill="#E4D0AD" />
<rect x="37" y="10" width="1" height="6" fill="#BFAE91" />
<rect x="25" y="11" width="1" height="6" fill="#BFAE91" />
<rect x="27" y="11" width="1" height="4" fill="#E4D0AD" />
<rect x="36" y="11" width="1" height="2" fill="#E4D0AD" />
<rect x="38" y="11" width="1" height="2" fill="#BFAE91" />
<rect x="35" y="13" width="2" height="3" fill="#BFAE91" />
<rect x="34" y="14" width="1" height="3" fill="#BFAE91" />
<rect x="27" y="15" width="1" height="1" fill="#BFAE91" />
<rect x="30" y="15" width="2" height="1" fill="#E4D0AD" />
<rect x="32" y="15" width="2" height="3" fill="#BFAE91" />
<rect x="38" y="15" width="1" height="2" fill="#BFAE91" />
<rect x="24" y="16" width="1" height="2" fill="#BFAE91" />
<rect x="27" y="16" width="1" height="1" fill="#EED9B5" />
<rect x="30" y="16" width="1" height="1" fill="#E4D0AD" />
<rect x="31" y="16" width="1" height="7" fill="#BFAE91" />
<rect x="35" y="16" width="2" height="28" fill="#E4D0AD" />
<rect x="37" y="16" width="1" height="2" fill="#D3C1A0" />
<rect x="39" y="16" width="1" height="2" fill="#BFAE91" />
<rect x="23" y="17" width="1" height="2" fill="#BFAE91" />
<rect x="25" y="17" width="2" height="1" fill="#EED9B5" />
<rect x="27" y="17" width="1" height="30" fill="#E4D0AD" />
<rect x="30" y="17" width="1" height="19" fill="#BFAE91" />
<rect x="34" y="17" width="1" height="30" fill="#E4D0AD" />
<rect x="38" y="17" width="1" height="2" fill="#D3C1A0" />
<rect x="40" y="17" width="1" height="2" fill="#BFAE91" />
<rect x="22" y="18" width="1" height="2" fill="#BFAE91" />
<rect x="24" y="18" width="2" height="1" fill="#EED9B5" />
<rect x="26" y="18" width="1" height="29" fill="#E4D0AD" />
<rect x="32" y="18" width="1" height="1" fill="#BFAE91" />
<rect x="33" y="18" width="1" height="29" fill="#E4D0AD" />
<rect x="37" y="18" width="1" height="25" fill="#E4D0AD" />
<rect x="39" y="18" width="1" height="2" fill="#D3C1A0" />
<rect x="41" y="18" width="1" height="2" fill="#BFAE91" />
<rect x="21" y="19" width="1" height="2" fill="#BFAE91" />
<rect x="23" y="19" width="2" height="1" fill="#EED9B5" />
<rect x="25" y="19" width="1" height="28" fill="#E4D0AD" />
<rect x="29" y="19" width="1" height="15" fill="#BFAE91" />
<rect x="32" y="19" width="1" height="28" fill="#E4D0AD" />
<rect x="38" y="19" width="1" height="22" fill="#E4D0AD" />
<rect x="40" y="19" width="1" height="2" fill="#D3C1A0" />
<rect x="42" y="19" width="1" height="2" fill="#BFAE91" />
<rect x="20" y="20" width="1" height="3" fill="#BFAE91" />
<rect x="22" y="20" width="2" height="1" fill="#EED9B5" />
<rect x="24" y="20" width="1" height="27" fill="#E4D0AD" />
<rect x="39" y="20" width="1" height="20" fill="#E4D0AD" />
<rect x="41" y="20" width="1" height="2" fill="#D3C1A0" />
<rect x="43" y="20" width="1" height="3" fill="#BFAE91" />
<rect x="19" y="21" width="1" height="4" fill="#BFAE91" />
<rect x="21" y="21" width="2" height="1" fill="#EED9B5" />
<rect x="23" y="21" width="1" height="26" fill="#E4D0AD" />
<rect x="40" y="21" width="1" height="18" fill="#E4D0AD" />
<rect x="42" y="21" width="1" height="3" fill="#D3C1A0" />
<rect x="44" y="21" width="1" height="4" fill="#BFAE91" />
<rect x="21" y="22" width="1" height="2" fill="#EED9B5" />
<rect x="22" y="22" width="1" height="24" fill="#E4D0AD" />
<rect x="41" y="22" width="1" height="16" fill="#E4D0AD" />
<rect x="18" y="23" width="1" height="5" fill="#BFAE91" />
<rect x="20" y="23" width="1" height="3" fill="#EED9B5" />
<rect x="28" y="23" width="1" height="8" fill="#BFAE91" />
<rect x="31" y="23" width="1" height="6" fill="#E4D0AD" />
<rect x="43" y="23" width="1" height="3" fill="#D3C1A0" />
<rect x="45" y="23" width="1" height="5" fill="#BFAE91" />
<rect x="21" y="24" width="1" height="21" fill="#E4D0AD" />
<rect x="42" y="24" width="1" height="13" fill="#E4D0AD" />
<rect x="17" y="25" width="1" height="16" fill="#BFAE91" />
<rect x="19" y="25" width="1" height="4" fill="#EED9B5" />
<rect x="44" y="25" width="1" height="5" fill="#D3C1A0" />
<rect x="46" y="25" width="1" height="16" fill="#BFAE91" />
<rect x="20" y="26" width="1" height="17" fill="#E4D0AD" />
<rect x="43" y="26" width="1" height="10" fill="#E4D0AD" />
<rect x="16" y="28" width="1" height="10" fill="#BFAE91" />
<rect x="18" y="28" width="1" height="5" fill="#EED9B5" />
<rect x="45" y="28" width="1" height="10" fill="#D3C1A0" />
<rect x="47" y="28" width="1" height="10" fill="#BFAE91" />
<rect x="19" y="29" width="1" height="12" fill="#E4D0AD" />
<rect x="31" y="29" width="1" height="7" fill="#BFAE91" />
<rect x="44" y="30" width="1" height="5" fill="#E4D0AD" />
<rect x="28" y="31" width="1" height="16" fill="#E4D0AD" />
<rect x="18" y="33" width="1" height="5" fill="#E4D0AD" />
<rect x="29" y="34" width="1" height="13" fill="#E4D0AD" />
<rect x="44" y="35" width="1" height="6" fill="#D3C1A0" />
<rect x="30" y="36" width="2" height="11" fill="#E4D0AD" />
<rect x="43" y="36" width="1" height="7" fill="#D3C1A0" />
<rect x="42" y="37" width="1" height="8" fill="#D3C1A0" />
<rect x="18" y="38" width="1" height="5" fill="#BFAE91" />
<rect x="41" y="38" width="1" height="8" fill="#D3C1A0" />
<rect x="45" y="38" width="1" height="5" fill="#BFAE91" />
<rect x="40" y="39" width="1" height="8" fill="#D3C1A0" />
<rect x="39" y="40" width="1" height="7" fill="#D3C1A0" />
<rect x="19" y="41" width="1" height="4" fill="#BFAE91" />
<rect x="38" y="41" width="1" height="6" fill="#D3C1A0" />
<rect x="44" y="41" width="1" height="4" fill="#BFAE91" />
<rect x="20" y="43" width="1" height="3" fill="#BFAE91" />
<rect x="37" y="43" width="1" height="4" fill="#D3C1A0" />
<rect x="43" y="43" width="1" height="3" fill="#BFAE91" />
<rect x="35" y="44" width="1" height="1" fill="#E4D0AD" />
<rect x="36" y="44" width="1" height="3" fill="#D3C1A0" />
<rect x="21" y="45" width="1" height="4" fill="#BFAE91" />
<rect x="35" y="45" width="1" height="2" fill="#D3C1A0" />
<rect x="42" y="45" width="1" height="4" fill="#BFAE91" />
<rect x="22" y="46" width="1" height="3" fill="#BFAE91" />
<rect x="41" y="46" width="1" height="3" fill="#BFAE91" />
<rect x="19" y="47" width="2" height="2" fill="#BFAE91" />
<rect x="23" y="47" width="18" height="2" fill="#BFAE91" />
<rect x="43" y="47" width="2" height="2" fill="#BFAE91" />
<rect x="18" y="48" width="1" height="2" fill="#BFAE91" />
<rect x="45" y="48" width="1" height="2" fill="#BFAE91" />
<rect x="17" y="49" width="1" height="2" fill="#BFAE91" />
<rect x="19" y="49" width="26" height="1" fill="#E4D0AD" />
<rect x="46" y="49" width="1" height="2" fill="#BFAE91" />
<rect x="16" y="50" width="1" height="2" fill="#BFAE91" />
<rect x="18" y="50" width="2" height="1" fill="#E4D0AD" />
<rect x="20" y="50" width="24" height="1" fill="#EED9B5" />
<rect x="44" y="50" width="2" height="1" fill="#E4D0AD" />
<rect x="47" y="50" width="1" height="2" fill="#BFAE91" />
<rect x="15" y="51" width="1" height="2" fill="#BFAE91" />
<rect x="17" y="51" width="2" height="5" fill="#E4D0AD" />
<rect x="19" y="51" width="1" height="1" fill="#EED9B5" />
<rect x="20" y="51" width="24" height="5" fill="#E4D0AD" />
<rect x="44" y="51" width="1" height="1" fill="#EED9B5" />
<rect x="45" y="51" width="2" height="5" fill="#E4D0AD" />
<rect x="48" y="51" width="1" height="2" fill="#BFAE91" />
<rect x="14" y="52" width="1" height="5" fill="#BFAE91" />
<rect x="16" y="52" width="1" height="4" fill="#E4D0AD" />
<rect x="19" y="52" width="1" height="4" fill="#E4D0AD" />
<rect x="44" y="52" width="1" height="4" fill="#E4D0AD" />
<rect x="47" y="52" width="1" height="4" fill="#E4D0AD" />
<rect x="49" y="52" width="1" height="5" fill="#BFAE91" />
<rect x="13" y="53" width="1" height="3" fill="#BFAE91" />
<rect x="15" y="53" width="1" height="3" fill="#E4D0AD" />
<rect x="48" y="53" width="1" height="3" fill="#E4D0AD" />
<rect x="50" y="53" width="1" height="3" fill="#BFAE91" />
<rect x="15" y="56" width="34" height="2" fill="#BFAE91" />
</svg>