<?xml version="1.0" encoding="UTF-8" ?>
<svg version="1.1" width="64" height="64" xmlns="http://www.w3.org/2000/svg" shape-rendering="crispEdges">
<rect x="30" y="6" width="4" height="2" fill="#BFAE91" />
<rect x="29" y="7" width="1" height="4" fill="#BFAE91" />
<rect x="34" y="7" width="1" height="4" fill="#BFAE91" />
<rect x="28" y="8" width="1" height="3" fill="#BFAE91" />
<rect x="30" y="8" width="4" height="36" fill="#E4D0AD" />
<rect x="35" y="8" width="1" height="3" fill="#BFAE91" />
<rect x="27" y="9" width="1" height="2" fill="#BFAE91" />
<rect x="36" y="9" width="1" height="2" fill="#BFAE91" />
<rect x="26" y="10" width="1" height="5" fill="#BFAE91" />
<rect x="37" y="10" width="1" height="5" fill="#BFAE91" />
<rect x="25" y="11" width="1" height="3" fill="#BFAE91" />
<rect x="27" y="11" width="3" height="3" fill="#E4D0AD" />
<rect x="34" y="11" width="3" height="3" fill="#E4D0AD" />
<rect x="38" y="11" width="1" height="3" fill="#BFAE91" />
<rect x="13" y="13" width="8" height="2" fill="#BFAE91" />
<rect x="43" y="13" width="8" height="2" fill="#BFAE91" />
<rect x="11" y="14" width="2" height="2" fill="#BFAE91" />
<rect x="21" y="14" width="2" height="2" fill="#BFAE91" />
<rect x="27" y="14" width="2" height="4" fill="#BFAE91" />
<rect x="29" y="14" width="1" height="30" fill="#E4D0AD" />
<rect x="34" y="14" width="1" height="30" fill="#E4D0AD" />
<rect x="35" y="14" width="2" height="4" fill="#BFAE91" />
<rect x="41" y="14" width="2" height="2" fill="#BFAE91" />
<rect x="51" y="14" width="2" height="2" fill="#BFAE91" />
<rect x="10" y="15" width="1" height="2" fill="#BFAE91" />
<rect x="13" y="15" width="3" height="2" fill="#EED9B5" />
<rect x="16" y="15" width="5" height="6" fill="#E4D0AD" />
<rect x="23" y="15" width="2" height="2" fill="#BFAE91" />
<rect x="39" y="15" width="2" height="2" fill="#BFAE91" />
<rect x="43" y="15" width="6" height="6" fill="#E4D0AD" />
<rect x="49" y="15" width="2" height="2" fill="#D3C1A0" />
<rect x="53" y="15" width="1" height="2" fill="#BFAE91" />
<rect x="9" y="16" width="1" height="2" fill="#BFAE91" />
<rect x="11" y="16" width="2" height="3" fill="#EED9B5" />
<rect x="21" y="16" width="2" height="6" fill="#E4D0AD" />
<rect x="25" y="16" width="2" height="2" fill="#BFAE91" />
<rect x="37" y="16" width="2" height="2" fill="#BFAE91" />
<rect x="41" y="16" width="2" height="6" fill="#E4D0AD" />
<rect x="51" y="16" width="2" height="4" fill="#D3C1A0" />
<rect x="54" y="16" width="1" height="2" fill="#BFAE91" />
<rect x="8" y="17" width="1" height="4" fill="#BFAE91" />
<rect x="10" y="17" width="1" height="6" fill="#EED9B5" />
<rect x="13" y="17" width="2" height="1" fill="#EED9B5" />
<rect x="15" y="17" width="1" height="5" fill="#E4D0AD" />
<rect x="23" y="17" width="2" height="7" fill="#E4D0AD" />
<rect x="39" y="17" width="2" height="7" fill="#E4D0AD" />
<rect x="49" y="17" width="1" height="7" fill="#E4D0AD" />
<rect x="50" y="17" width="1" height="1" fill="#D3C1A0" />
<rect x="53" y="17" width="1" height="8" fill="#D3C1A0" />
<rect x="55" y="17" width="1" height="4" fill="#BFAE91" />
<rect x="7" y="18" width="1" height="19" fill="#BFAE91" />
<rect x="9" y="18" width="1" height="15" fill="#EED9B5" />
<rect x="13" y="18" width="2" height="6" fill="#E4D0AD" />
<rect x="25" y="18" width="3" height="7" fill="#E4D0AD" />
<rect x="28" y="18" width="1" height="1" fill="#BFAE91" />
<rect x="35" y="18" width="1" height="1" fill="#BFAE91" />
<rect x="36" y="18" width="3" height="7" fill="#E4D0AD" />
<rect x="50" y="18" width="1" height="20" fill="#E4D0AD" />
<rect x="54" y="18" width="1" height="19" fill="#D3C1A0" />
<rect x="56" y="18" width="1" height="19" fill="#BFAE91" />
<rect x="11" y="19" width="1" height="1" fill="#EED9B5" />
<rect x="12" y="19" width="1" height="22" fill="#E4D0AD" />
<rect x="28" y="19" width="1" height="9" fill="#E4D0AD" />
<rect x="35" y="19" width="1" height="9" fill="#E4D0AD" />
<rect x="11" y="20" width="1" height="20" fill="#E4D0AD" />
<rect x="51" y="20" width="1" height="16" fill="#E4D0AD" />
<rect x="52" y="20" width="1" height="2" fill="#D3C1A0" />
<rect x="6" y="21" width="1" height="11" fill="#BFAE91" />
<rect x="8" y="21" width="1" height="11" fill="#EED9B5" />
<rect x="16" y="21" width="1" height="1" fill="#E4D0AD" />
<rect x="17" y="21" width="2" height="2" fill="#BFAE91" />
<rect x="19" y="21" width="2" height="1" fill="#E4D0AD" />
<rect x="43" y="21" width="2" height="1" fill="#E4D0AD" />
<rect x="45" y="21" width="2" height="2" fill="#BFAE91" />
<rect x="47" y="21" width="2" height="1" fill="#E4D0AD" />
<rect x="55" y="21" width="1" height="11" fill="#D3C1A0" />
<rect x="57" y="21" width="1" height="11" fill="#BFAE91" />
<rect x="15" y="22" width="2" height="2" fill="#BFAE91" />
<rect x="19" y="22" width="3" height="2" fill="#BFAE91" />
<rect x="22" y="22" width="1" height="1" fill="#E4D0AD" />
<rect x="41" y="22" width="1" height="1" fill="#E4D0AD" />
<rect x="42" y="22" width="3" height="2" fill="#BFAE91" />
<rect x="47" y="22" width="2" height="2" fill="#BFAE91" />
<rect x="52" y="22" width="1" height="13" fill="#E4D0AD" />
<rect x="10" y="23" width="1" height="17" fill="#E4D0AD" />
<rect x="18" y="23" width="1" height="1" fill="#BFAE91" />
<rect x="22" y="23" width="1" height="2" fill="#BFAE91" />
<rect x="41" y="23" width="1" height="2" fill="#BFAE91" />
<rect x="45" y="23" width="1" height="1" fill="#BFAE91" />
<rect x="13" y="24" width="1" height="18" fill="#E4D0AD" />
<rect x="14" y="24" width="2" height="5" fill="#BFAE91" />
<rect x="21" y="24" width="1" height="1" fill="#BFAE91" />
<rect x="23" y="24" width="2" height="2" fill="#BFAE91" />
<rect x="39" y="24" width="2" height="2" fill="#BFAE91" />
<rect x="42" y="24" width="1" height="1" fill="#BFAE91" />
<rect x="48" y="24" width="2" height="5" fill="#BFAE91" />
<rect x="25" y="25" width="2" height="2" fill="#BFAE91" />
<rect x="27" y="25" width="1" height="1" fill="#E4D0AD" />
<rect x="36" y="25" width="1" height="1" fill="#E4D0AD" />
<rect x="37" y="25" width="2" height="2" fill="#BFAE91" />
<rect x="53" y="25" width="1" height="8" fill="#E4D0AD" />
<rect x="27" y="26" width="1" height="11" fill="#BFAE91" />
<rect x="36" y="26" width="1" height="11" fill="#BFAE91" />
<rect x="26" y="27" width="1" height="1" fill="#BFAE91" />
<rect x="37" y="27" width="1" height="1" fill="#BFAE91" />
<rect x="28" y="28" width="1" height="7" fill="#BFAE91" />
<rect x="35" y="28" width="1" height="7" fill="#BFAE91" />
<rect x="14" y="29" width="1" height="13" fill="#E4D0AD" />
<rect x="15" y="29" width="2" height="3" fill="#BFAE91" />
<rect x="47" y="29" width="2" height="3" fill="#BFAE91" />
<rect x="49" y="29" width="1" height="11" fill="#E4D0AD" />
<rect x="17" y="31" width="1" height="3" fill="#BFAE91" />
<rect x="46" y="31" width="1" height="3" fill="#BFAE91" />
<rect x="8" y="32" width="1" height="8" fill="#BFAE91" />
<rect x="15" y="32" width="1" height="11" fill="#E4D0AD" />
<rect x="16" y="32" width="1" height="1" fill="#BFAE91" />
<rect x="18" y="32" width="1" height="3" fill="#BFAE91" />
<rect x="45" y="32" width="1" height="3" fill="#BFAE91" />
<rect x="47" y="32" width="1" height="1" fill="#BFAE91" />
<rect x="48" y="32" width="1" height="9" fill="#E4D0AD" />
<rect x="55" y="32" width="1" height="8" fill="#BFAE91" />
<rect x="9" y="33" width="1" height="4" fill="#E4D0AD" />
<rect x="16" y="33" width="1" height="10" fill="#E4D0AD" />
<rect x="19" y="33" width="1" height="2" fill="#BFAE91" />
<rect x="44" y="33" width="1" height="2" fill="#BFAE91" />
<rect x="47" y="33" width="1" height="9" fill="#E4D0AD" />
<rect x="53" y="33" width="1" height="7" fill="#D3C1A0" />
<rect x="17" y="34" width="1" height="10" fill="#E4D0AD" />
<rect x="20" y="34" width="2" height="2" fill="#BFAE91" />
<rect x="42" y="34" width="2" height="2" fill="#BFAE91" />
<rect x="46" y="34" width="1" height="8" fill="#E4D0AD" />
<rect x="18" y="35" width="2" height="9" fill="#E4D0AD" />
<rect x="22" y="35" width="5" height="2" fill="#BFAE91" />
<rect x="28" y="35" width="1" height="9" fill="#E4D0AD" />
<rect x="35" y="35" width="1" height="9" fill="#E4D0AD" />
<rect x="37" y="35" width="5" height="2" fill="#BFAE91" />
<rect x="44" y="35" width="2" height="8" fill="#E4D0AD" />
<rect x="52" y="35" width="1" height="5" fill="#D3C1A0" />
<rect x="20" y="36" width="2" height="8" fill="#E4D0AD" />
<rect x="42" y="36" width="2" height="8" fill="#E4D0AD" />
<rect x="51" y="36" width="1" height="5" fill="#D3C1A0" />
<rect x="9" y="37" width="1" height="4" fill="#BFAE91" />
<rect x="22" y="37" width="6" height="7" fill="#E4D0AD" />
<rect x="36" y="37" width="6" height="7" fill="#E4D0AD" />
<rect x="54" y="37" width="1" height="4" fill="#BFAE91" />
<rect x="50" y="38" width="1" height="4" fill="#D3C1A0" />
<rect x="10" y="40" width="2" height="2" fill="#BFAE91" />
<rect x="49" y="40" width="1" height="2" fill="#D3C1A0" />
<rect x="52" y="40" width="2" height="2" fill="#BFAE91" />
<rect x="12" y="41" width="1" height="2" fill="#BFAE91" />
<rect x="48" y="41" width="1" height="2" fill="#D3C1A0" />
<rect x="51" y="41" width="1" height="2" fill="#BFAE91" />
<rect x="13" y="42" width="2" height="2" fill="#BFAE91" />
<rect x="46" y="42" width="2" height="1" fill="#D3C1A0" />
<rect x="49" y="42" width="2" height="2" fill="#BFAE91" />
<rect x="15" y="43" width="2" height="3" fill="#BFAE91" />
<rect x="44" y="43" width="1" height="1" fill="#E4D0AD" />
<rect x="45" y="43" width="2" height="1" fill="#D3C1A0" />
<rect x="47" y="43" width="2" height="3" fill="#BFAE91" />
<rect x="14" y="44" width="1" height="2" fill="#BFAE91" />
<rect x="17" y="44" width="30" height="2" fill="#BFAE91" />
<rect x="49" y="44" width="1" height="2" fill="#BFAE91" />
<rect x="12" y="45" width="2" height="2" fill="#BFAE91" />
<rect x="50" y="45" width="2" height="2" fill="#BFAE91" />
<rect x="11" y="46" width="1" height="2" fill="#BFAE91" />
<rect x="14" y="46" width="36" height="1" fill="#E4D0AD" />
<rect x="52" y="46" width="1" height="2" fill="#BFAE91" />
<rect x="10" y="47" width="1" height="2" fill="#BFAE91" />
<rect x="12" y="47" width="3" height="1" fill="#E4D0AD" />
<rect x="15" y="47" width="33" height="1" fill="#EED9B5" />
<rect x="48" y="47" width="4" height="1" fill="#E4D0AD" />
<rect x="53" y="47" width="1" height="2" fill="#BFAE91" />
<rect x="9" y="48" width="1" height="2" fill="#BFAE91" />
<rect x="11" y="48" width="3" height="8" fill="#E4D0AD" />
<rect x="14" y="48" width="1" height="1" fill="#EED9B5" />
<rect x="15" y="48" width="33" height="8" fill="#E4D0AD" />
<rect x="48" y="48" width="1" height="1" fill="#EED9B5" />
<rect x="49" y="48" width="4" height="8" fill="#E4D0AD" />
<rect x="54" y="48" width="1" height="2" fill="#BFAE91" />
<rect x="8" y="49" width="1" height="2" fill="#BFAE91" />
<rect x="10" y="49" width="1" height="7" fill="#E4D0AD" />
<rect x="14" y="49" width="1" height="7" fill="#E4D0AD" />
<rect x="48" y="49" width="1" height="7" fill="#E4D0AD" />
<rect x="53" y="49" width="1" height="7" fill="#E4D0AD" />
<rect x="55" y="49" width="1" height="2" fill="#BFAE91" />
<rect x="7" y="50" width="1" height="7" fill="#BFAE91" />
<rect x="9" y="50" width="1" height="6" fill="#E4D0AD" />
<rect x="54" y="50" width="1" height="6" fill="#E4D0AD" />
<rect x="56" y="50" width="1" height="7" fill="#BFAE91" />
<rect x="6" y="51" width="1" height="5" fill="#BFAE91" />
<rect x="8" y="51" width="1" height="5" fill="#E4D0AD" />
<rect x="55" y="51" width="1" height="5" fill="#E4D0AD" />
<rect x="57" y="51" width="1" height="5" fill="#BFAE91" />
<rect x="8" y="56" width="48" height="2" fill="#BFAE91" />
</svg>