<?xml version="1.0" encoding="UTF-8" ?>
<svg version="1.1" width="64" height="64" xmlns="http://www.w3.org/2000/svg" shape-rendering="crispEdges">
<rect x="30" y="4" width="2" height="2" fill="#000000" />
<rect x="29" y="5" width="1" height="2" fill="#000000" />
<rect x="32" y="5" width="1" height="2" fill="#000000" />
<rect x="28" y="6" width="1" height="4" fill="#000000" />
<rect x="30" y="6" width="1" height="2" fill="#353151" />
<rect x="31" y="6" width="1" height="24" fill="#2A2740" />
<rect x="33" y="6" width="1" height="4" fill="#000000" />
<rect x="27" y="7" width="1" height="5" fill="#000000" />
<rect x="29" y="7" width="1" height="4" fill="#353151" />
<rect x="32" y="7" width="1" height="22" fill="#2A2740" />
<rect x="34" y="7" width="1" height="5" fill="#000000" />
<rect x="30" y="8" width="1" height="22" fill="#2A2740" />
<rect x="25" y="10" width="2" height="2" fill="#000000" />
<rect x="28" y="10" width="1" height="3" fill="#353151" />
<rect x="33" y="10" width="1" height="18" fill="#2A2740" />
<rect x="35" y="10" width="4" height="2" fill="#000000" />
<rect x="24" y="11" width="1" height="2" fill="#000000" />
<rect x="29" y="11" width="1" height="20" fill="#2A2740" />
<rect x="39" y="11" width="3" height="2" fill="#000000" />
<rect x="23" y="12" width="1" height="2" fill="#000000" />
<rect x="25" y="12" width="3" height="1" fill="#353151" />
<rect x="34" y="12" width="3" height="17" fill="#2A2740" />
<rect x="37" y="12" width="1" height="2" fill="#211F32" />
<rect x="38" y="12" width="1" height="1" fill="#2A2740" />
<rect x="42" y="12" width="2" height="2" fill="#000000" />
<rect x="22" y="13" width="1" height="2" fill="#000000" />
<rect x="24" y="13" width="3" height="1" fill="#353151" />
<rect x="27" y="13" width="2" height="5" fill="#2A2740" />
<rect x="38" y="13" width="4" height="2" fill="#211F32" />
<rect x="44" y="13" width="1" height="2" fill="#000000" />
<rect x="21" y="14" width="1" height="3" fill="#000000" />
<rect x="23" y="14" width="2" height="1" fill="#353151" />
<rect x="25" y="14" width="2" height="4" fill="#2A2740" />
<rect x="37" y="14" width="1" height="36" fill="#2A2740" />
<rect x="42" y="14" width="2" height="6" fill="#211F32" />
<rect x="45" y="14" width="1" height="2" fill="#000000" />
<rect x="20" y="15" width="1" height="5" fill="#000000" />
<rect x="22" y="15" width="2" height="2" fill="#353151" />
<rect x="24" y="15" width="1" height="19" fill="#2A2740" />
<rect x="38" y="15" width="2" height="35" fill="#2A2740" />
<rect x="40" y="15" width="2" height="2" fill="#211F32" />
<rect x="44" y="15" width="1" height="10" fill="#211F32" />
<rect x="46" y="15" width="1" height="3" fill="#000000" />
<rect x="45" y="16" width="1" height="11" fill="#211F32" />
<rect x="47" y="16" width="1" height="3" fill="#000000" />
<rect x="19" y="17" width="1" height="5" fill="#000000" />
<rect x="21" y="17" width="2" height="3" fill="#353151" />
<rect x="23" y="17" width="1" height="17" fill="#2A2740" />
<rect x="40" y="17" width="1" height="33" fill="#2A2740" />
<rect x="41" y="17" width="1" height="2" fill="#211F32" />
<rect x="25" y="18" width="1" height="1" fill="#2A2740" />
<rect x="26" y="18" width="3" height="2" fill="#000000" />
<rect x="46" y="18" width="1" height="12" fill="#211F32" />
<rect x="48" y="18" width="1" height="4" fill="#000000" />
<rect x="25" y="19" width="1" height="2" fill="#000000" />
<rect x="41" y="19" width="1" height="31" fill="#2A2740" />
<rect x="47" y="19" width="1" height="29" fill="#211F32" />
<rect x="49" y="19" width="1" height="9" fill="#000000" />
<rect x="18" y="20" width="1" height="3" fill="#000000" />
<rect x="20" y="20" width="2" height="2" fill="#353151" />
<rect x="22" y="20" width="1" height="14" fill="#2A2740" />
<rect x="26" y="20" width="2" height="1" fill="#000000" />
<rect x="28" y="20" width="1" height="11" fill="#2A2740" />
<rect x="42" y="20" width="1" height="27" fill="#2A2740" />
<rect x="43" y="20" width="1" height="3" fill="#211F32" />
<rect x="25" y="21" width="3" height="11" fill="#2A2740" />
<rect x="16" y="22" width="2" height="2" fill="#000000" />
<rect x="19" y="22" width="2" height="1" fill="#353151" />
<rect x="21" y="22" width="1" height="12" fill="#2A2740" />
<rect x="48" y="22" width="1" height="23" fill="#211F32" />
<rect x="50" y="22" width="1" height="23" fill="#000000" />
<rect x="15" y="23" width="1" height="2" fill="#000000" />
<rect x="18" y="23" width="2" height="1" fill="#353151" />
<rect x="20" y="23" width="1" height="13" fill="#2A2740" />
<rect x="43" y="23" width="1" height="22" fill="#2A2740" />
<rect x="13" y="24" width="2" height="2" fill="#000000" />
<rect x="16" y="24" width="3" height="1" fill="#353151" />
<rect x="19" y="24" width="1" height="13" fill="#2A2740" />
<rect x="11" y="25" width="2" height="2" fill="#000000" />
<rect x="15" y="25" width="2" height="1" fill="#353151" />
<rect x="17" y="25" width="2" height="12" fill="#2A2740" />
<rect x="44" y="25" width="1" height="17" fill="#2A2740" />
<rect x="10" y="26" width="1" height="2" fill="#000000" />
<rect x="13" y="26" width="3" height="1" fill="#353151" />
<rect x="16" y="26" width="1" height="11" fill="#2A2740" />
<rect x="9" y="27" width="1" height="7" fill="#000000" />
<rect x="11" y="27" width="3" height="1" fill="#353151" />
<rect x="14" y="27" width="2" height="9" fill="#2A2740" />
<rect x="45" y="27" width="1" height="10" fill="#2A2740" />
<rect x="8" y="28" width="1" height="4" fill="#000000" />
<rect x="10" y="28" width="2" height="1" fill="#353151" />
<rect x="12" y="28" width="2" height="7" fill="#2A2740" />
<rect x="33" y="28" width="1" height="7" fill="#000000" />
<rect x="49" y="28" width="1" height="12" fill="#211F32" />
<rect x="51" y="28" width="1" height="12" fill="#000000" />
<rect x="10" y="29" width="1" height="2" fill="#353151" />
<rect x="11" y="29" width="1" height="5" fill="#2A2740" />
<rect x="32" y="29" width="1" height="2" fill="#000000" />
<rect x="34" y="29" width="1" height="6" fill="#000000" />
<rect x="35" y="29" width="2" height="21" fill="#2A2740" />
<rect x="30" y="30" width="2" height="2" fill="#000000" />
<rect x="46" y="30" width="1" height="3" fill="#2A2740" />
<rect x="10" y="31" width="1" height="1" fill="#2A2740" />
<rect x="28" y="31" width="2" height="2" fill="#000000" />
<rect x="10" y="32" width="1" height="3" fill="#000000" />
<rect x="25" y="32" width="2" height="1" fill="#2A2740" />
<rect x="27" y="32" width="1" height="2" fill="#000000" />
<rect x="25" y="33" width="2" height="2" fill="#000000" />
<rect x="46" y="33" width="1" height="16" fill="#211F32" />
<rect x="11" y="34" width="1" height="2" fill="#000000" />
<rect x="21" y="34" width="4" height="2" fill="#000000" />
<rect x="32" y="34" width="1" height="2" fill="#000000" />
<rect x="12" y="35" width="1" height="2" fill="#000000" />
<rect x="13" y="35" width="1" height="1" fill="#2A2740" />
<rect x="29" y="35" width="3" height="2" fill="#000000" />
<rect x="33" y="35" width="2" height="15" fill="#2A2740" />
<rect x="13" y="36" width="2" height="2" fill="#000000" />
<rect x="15" y="36" width="1" height="1" fill="#2A2740" />
<rect x="20" y="36" width="2" height="1" fill="#000000" />
<rect x="26" y="36" width="3" height="2" fill="#000000" />
<rect x="32" y="36" width="1" height="14" fill="#2A2740" />
<rect x="15" y="37" width="6" height="1" fill="#000000" />
<rect x="25" y="37" width="1" height="2" fill="#000000" />
<rect x="29" y="37" width="3" height="13" fill="#2A2740" />
<rect x="45" y="37" width="1" height="13" fill="#211F32" />
<rect x="15" y="38" width="5" height="1" fill="#000000" />
<rect x="23" y="38" width="2" height="2" fill="#000000" />
<rect x="26" y="38" width="3" height="12" fill="#2A2740" />
<rect x="22" y="39" width="1" height="3" fill="#000000" />
<rect x="25" y="39" width="1" height="11" fill="#2A2740" />
<rect x="21" y="40" width="1" height="2" fill="#000000" />
<rect x="23" y="40" width="2" height="10" fill="#2A2740" />
<rect x="49" y="40" width="1" height="8" fill="#000000" />
<rect x="20" y="41" width="1" height="3" fill="#000000" />
<rect x="19" y="42" width="1" height="5" fill="#000000" />
<rect x="21" y="42" width="2" height="8" fill="#2A2740" />
<rect x="44" y="42" width="1" height="8" fill="#211F32" />
<rect x="18" y="44" width="1" height="8" fill="#000000" />
<rect x="20" y="44" width="1" height="6" fill="#2A2740" />
<rect x="43" y="45" width="1" height="5" fill="#211F32" />
<rect x="48" y="45" width="1" height="7" fill="#000000" />
<rect x="17" y="47" width="1" height="5" fill="#000000" />
<rect x="19" y="47" width="1" height="3" fill="#2A2740" />
<rect x="42" y="47" width="1" height="3" fill="#211F32" />
<rect x="47" y="48" width="1" height="4" fill="#000000" />
<rect x="46" y="49" width="1" height="3" fill="#000000" />
<rect x="16" y="50" width="1" height="2" fill="#000000" />
<rect x="19" y="50" width="27" height="2" fill="#000000" />
<rect x="49" y="50" width="1" height="2" fill="#000000" />
<rect x="15" y="51" width="1" height="2" fill="#000000" />
<rect x="50" y="51" width="1" height="2" fill="#000000" />
<rect x="14" y="52" width="1" height="2" fill="#000000" />
<rect x="16" y="52" width="34" height="1" fill="#2A2740" />
<rect x="51" y="52" width="1" height="2" fill="#000000" />
<rect x="13" y="53" width="1" height="2" fill="#000000" />
<rect x="15" y="53" width="2" height="1" fill="#2A2740" />
<rect x="17" y="53" width="32" height="1" fill="#353151" />
<rect x="49" y="53" width="2" height="1" fill="#2A2740" />
<rect x="52" y="53" width="1" height="2" fill="#000000" />
<rect x="12" y="54" width="1" height="5" fill="#000000" />
<rect x="14" y="54" width="2" height="3" fill="#2A2740" />
<rect x="16" y="54" width="1" height="1" fill="#353151" />
<rect x="17" y="54" width="32" height="3" fill="#2A2740" />
<rect x="49" y="54" width="1" height="1" fill="#353151" />
<rect x="50" y="54" width="2" height="3" fill="#2A2740" />
<rect x="53" y="54" width="1" height="5" fill="#000000" />
<rect x="11" y="55" width="1" height="4" fill="#000000" />
<rect x="13" y="55" width="1" height="2" fill="#2A2740" />
<rect x="16" y="55" width="1" height="2" fill="#2A2740" />
<rect x="49" y="55" width="1" height="2" fill="#2A2740" />
<rect x="52" y="55" width="1" height="2" fill="#2A2740" />
<rect x="54" y="55" width="1" height="4" fill="#000000" />
<rect x="13" y="57" width="40" height="2" fill="#000000" />
</svg>