<?xml version="1.0" encoding="UTF-8" ?>
<svg version="1.1" width="150" height="150" xmlns="http://www.w3.org/2000/svg" shape-rendering="crispEdges">
<rect x="71" y="19" width="8" height="3" fill="#000000" />
<rect x="68" y="20" width="3" height="3" fill="#000000" />
<rect x="79" y="20" width="3" height="3" fill="#000000" />
<rect x="66" y="21" width="2" height="3" fill="#000000" />
<rect x="82" y="21" width="2" height="3" fill="#000000" />
<rect x="65" y="22" width="1" height="3" fill="#000000" />
<rect x="71" y="22" width="8" height="29" fill="#2A2740" />
<rect x="84" y="22" width="1" height="3" fill="#000000" />
<rect x="64" y="23" width="1" height="3" fill="#000000" />
<rect x="68" y="23" width="3" height="28" fill="#2A2740" />
<rect x="79" y="23" width="3" height="2" fill="#2A2740" />
<rect x="85" y="23" width="1" height="3" fill="#000000" />
<rect x="63" y="24" width="1" height="3" fill="#000000" />
<rect x="66" y="24" width="2" height="27" fill="#2A2740" />
<rect x="82" y="24" width="2" height="1" fill="#2A2740" />
<rect x="86" y="24" width="1" height="3" fill="#000000" />
<rect x="62" y="25" width="1" height="3" fill="#000000" />
<rect x="65" y="25" width="1" height="26" fill="#2A2740" />
<rect x="79" y="25" width="4" height="3" fill="#353151" />
<rect x="83" y="25" width="2" height="1" fill="#2A2740" />
<rect x="87" y="25" width="1" height="3" fill="#000000" />
<rect x="61" y="26" width="1" height="3" fill="#000000" />
<rect x="64" y="26" width="1" height="25" fill="#2A2740" />
<rect x="83" y="26" width="1" height="6" fill="#353151" />
<rect x="84" y="26" width="2" height="1" fill="#2A2740" />
<rect x="88" y="26" width="1" height="3" fill="#000000" />
<rect x="60" y="27" width="1" height="3" fill="#000000" />
<rect x="63" y="27" width="1" height="24" fill="#2A2740" />
<rect x="84" y="27" width="1" height="6" fill="#353151" />
<rect x="85" y="27" width="2" height="1" fill="#2A2740" />
<rect x="89" y="27" width="1" height="3" fill="#000000" />
<rect x="59" y="28" width="1" height="4" fill="#000000" />
<rect x="62" y="28" width="1" height="22" fill="#2A2740" />
<rect x="79" y="28" width="1" height="23" fill="#2A2740" />
<rect x="80" y="28" width="3" height="1" fill="#353151" />
<rect x="85" y="28" width="1" height="8" fill="#353151" />
<rect x="86" y="28" width="2" height="1" fill="#2A2740" />
<rect x="90" y="28" width="1" height="4" fill="#000000" />
<rect x="58" y="29" width="1" height="6" fill="#000000" />
<rect x="61" y="29" width="1" height="20" fill="#2A2740" />
<rect x="80" y="29" width="1" height="22" fill="#2A2740" />
<rect x="81" y="29" width="2" height="1" fill="#353151" />
<rect x="86" y="29" width="1" height="9" fill="#353151" />
<rect x="87" y="29" width="2" height="1" fill="#2A2740" />
<rect x="91" y="29" width="1" height="6" fill="#000000" />
<rect x="57" y="30" width="1" height="18" fill="#000000" />
<rect x="60" y="30" width="1" height="18" fill="#2A2740" />
<rect x="81" y="30" width="1" height="21" fill="#2A2740" />
<rect x="82" y="30" width="1" height="1" fill="#353151" />
<rect x="87" y="30" width="1" height="8" fill="#353151" />
<rect x="88" y="30" width="2" height="3" fill="#2A2740" />
<rect x="92" y="30" width="1" height="18" fill="#000000" />
<rect x="82" y="31" width="1" height="20" fill="#2A2740" />
<rect x="56" y="32" width="1" height="14" fill="#000000" />
<rect x="59" y="32" width="1" height="14" fill="#2A2740" />
<rect x="83" y="32" width="1" height="19" fill="#2A2740" />
<rect x="90" y="32" width="1" height="14" fill="#2A2740" />
<rect x="93" y="32" width="1" height="14" fill="#000000" />
<rect x="84" y="33" width="1" height="18" fill="#2A2740" />
<rect x="88" y="33" width="1" height="5" fill="#353151" />
<rect x="89" y="33" width="1" height="15" fill="#2A2740" />
<rect x="55" y="35" width="1" height="8" fill="#000000" />
<rect x="58" y="35" width="1" height="8" fill="#2A2740" />
<rect x="91" y="35" width="1" height="8" fill="#2A2740" />
<rect x="94" y="35" width="1" height="8" fill="#000000" />
<rect x="85" y="36" width="1" height="15" fill="#2A2740" />
<rect x="86" y="38" width="3" height="11" fill="#2A2740" />
<rect x="58" y="43" width="1" height="6" fill="#000000" />
<rect x="91" y="43" width="1" height="6" fill="#000000" />
<rect x="59" y="46" width="1" height="4" fill="#000000" />
<rect x="90" y="46" width="1" height="4" fill="#000000" />
<rect x="60" y="48" width="1" height="3" fill="#000000" />
<rect x="89" y="48" width="1" height="3" fill="#000000" />
<rect x="61" y="49" width="1" height="3" fill="#000000" />
<rect x="86" y="49" width="2" height="1" fill="#2A2740" />
<rect x="88" y="49" width="1" height="3" fill="#000000" />
<rect x="62" y="50" width="1" height="9" fill="#000000" />
<rect x="86" y="50" width="1" height="1" fill="#2A2740" />
<rect x="87" y="50" width="1" height="9" fill="#000000" />
<rect x="63" y="51" width="24" height="2" fill="#000000" />
<rect x="61" y="53" width="1" height="5" fill="#000000" />
<rect x="63" y="53" width="1" height="1" fill="#000000" />
<rect x="64" y="53" width="22" height="5" fill="#2A2740" />
<rect x="86" y="53" width="1" height="1" fill="#000000" />
<rect x="88" y="53" width="1" height="5" fill="#000000" />
<rect x="60" y="54" width="1" height="3" fill="#000000" />
<rect x="63" y="54" width="1" height="3" fill="#2A2740" />
<rect x="86" y="54" width="1" height="3" fill="#2A2740" />
<rect x="89" y="54" width="1" height="3" fill="#000000" />
<rect x="63" y="57" width="1" height="3" fill="#000000" />
<rect x="86" y="57" width="1" height="3" fill="#000000" />
<rect x="64" y="58" width="5" height="3" fill="#000000" />
<rect x="69" y="58" width="12" height="64" fill="#2A2740" />
<rect x="81" y="58" width="5" height="3" fill="#000000" />
<rect x="66" y="61" width="3" height="3" fill="#000000" />
<rect x="81" y="61" width="3" height="3" fill="#000000" />
<rect x="65" y="64" width="3" height="3" fill="#000000" />
<rect x="68" y="64" width="1" height="58" fill="#2A2740" />
<rect x="81" y="64" width="1" height="58" fill="#2A2740" />
<rect x="82" y="64" width="3" height="3" fill="#000000" />
<rect x="64" y="67" width="3" height="3" fill="#000000" />
<rect x="67" y="67" width="1" height="55" fill="#2A2740" />
<rect x="82" y="67" width="1" height="55" fill="#2A2740" />
<rect x="83" y="67" width="3" height="3" fill="#000000" />
<rect x="63" y="70" width="3" height="4" fill="#000000" />
<rect x="66" y="70" width="1" height="52" fill="#2A2740" />
<rect x="83" y="70" width="1" height="52" fill="#2A2740" />
<rect x="84" y="70" width="3" height="4" fill="#000000" />
<rect x="62" y="74" width="3" height="2" fill="#000000" />
<rect x="65" y="74" width="1" height="48" fill="#2A2740" />
<rect x="84" y="74" width="1" height="48" fill="#2A2740" />
<rect x="85" y="74" width="3" height="2" fill="#000000" />
<rect x="61" y="76" width="3" height="2" fill="#000000" />
<rect x="64" y="76" width="1" height="46" fill="#2A2740" />
<rect x="85" y="76" width="1" height="46" fill="#2A2740" />
<rect x="86" y="76" width="3" height="2" fill="#000000" />
<rect x="60" y="78" width="3" height="2" fill="#000000" />
<rect x="63" y="78" width="1" height="44" fill="#2A2740" />
<rect x="86" y="78" width="1" height="44" fill="#2A2740" />
<rect x="87" y="78" width="3" height="2" fill="#000000" />
<rect x="59" y="80" width="3" height="1" fill="#000000" />
<rect x="62" y="80" width="1" height="42" fill="#2A2740" />
<rect x="87" y="80" width="1" height="42" fill="#2A2740" />
<rect x="88" y="80" width="3" height="1" fill="#000000" />
<rect x="58" y="81" width="3" height="1" fill="#000000" />
<rect x="61" y="81" width="1" height="41" fill="#2A2740" />
<rect x="88" y="81" width="1" height="41" fill="#2A2740" />
<rect x="89" y="81" width="3" height="1" fill="#000000" />
<rect x="57" y="82" width="3" height="2" fill="#000000" />
<rect x="60" y="82" width="1" height="40" fill="#2A2740" />
<rect x="89" y="82" width="1" height="40" fill="#2A2740" />
<rect x="90" y="82" width="3" height="2" fill="#000000" />
<rect x="56" y="84" width="3" height="1" fill="#000000" />
<rect x="59" y="84" width="1" height="38" fill="#2A2740" />
<rect x="90" y="84" width="1" height="38" fill="#2A2740" />
<rect x="91" y="84" width="3" height="1" fill="#000000" />
<rect x="55" y="85" width="3" height="1" fill="#000000" />
<rect x="58" y="85" width="1" height="37" fill="#2A2740" />
<rect x="91" y="85" width="1" height="37" fill="#2A2740" />
<rect x="92" y="85" width="3" height="1" fill="#000000" />
<rect x="54" y="86" width="3" height="1" fill="#000000" />
<rect x="57" y="86" width="1" height="36" fill="#2A2740" />
<rect x="92" y="86" width="1" height="36" fill="#2A2740" />
<rect x="93" y="86" width="3" height="1" fill="#000000" />
<rect x="53" y="87" width="3" height="2" fill="#000000" />
<rect x="56" y="87" width="1" height="35" fill="#2A2740" />
<rect x="93" y="87" width="1" height="35" fill="#2A2740" />
<rect x="94" y="87" width="3" height="2" fill="#000000" />
<rect x="52" y="89" width="3" height="1" fill="#000000" />
<rect x="55" y="89" width="1" height="33" fill="#2A2740" />
<rect x="94" y="89" width="1" height="33" fill="#2A2740" />
<rect x="95" y="89" width="3" height="1" fill="#000000" />
<rect x="51" y="90" width="3" height="1" fill="#000000" />
<rect x="54" y="90" width="1" height="32" fill="#2A2740" />
<rect x="95" y="90" width="1" height="32" fill="#2A2740" />
<rect x="96" y="90" width="3" height="1" fill="#000000" />
<rect x="50" y="91" width="3" height="1" fill="#000000" />
<rect x="53" y="91" width="1" height="31" fill="#2A2740" />
<rect x="96" y="91" width="1" height="31" fill="#2A2740" />
<rect x="97" y="91" width="3" height="1" fill="#000000" />
<rect x="49" y="92" width="3" height="1" fill="#000000" />
<rect x="52" y="92" width="1" height="30" fill="#2A2740" />
<rect x="97" y="92" width="1" height="30" fill="#2A2740" />
<rect x="98" y="92" width="3" height="1" fill="#000000" />
<rect x="48" y="93" width="3" height="1" fill="#000000" />
<rect x="51" y="93" width="1" height="29" fill="#2A2740" />
<rect x="98" y="93" width="1" height="29" fill="#2A2740" />
<rect x="99" y="93" width="3" height="1" fill="#000000" />
<rect x="47" y="94" width="3" height="1" fill="#000000" />
<rect x="50" y="94" width="1" height="28" fill="#2A2740" />
<rect x="99" y="94" width="1" height="28" fill="#2A2740" />
<rect x="100" y="94" width="3" height="1" fill="#000000" />
<rect x="46" y="95" width="3" height="2" fill="#000000" />
<rect x="49" y="95" width="1" height="27" fill="#2A2740" />
<rect x="100" y="95" width="1" height="27" fill="#2A2740" />
<rect x="101" y="95" width="3" height="2" fill="#000000" />
<rect x="45" y="97" width="3" height="1" fill="#000000" />
<rect x="48" y="97" width="1" height="25" fill="#2A2740" />
<rect x="101" y="97" width="1" height="25" fill="#2A2740" />
<rect x="102" y="97" width="3" height="1" fill="#000000" />
<rect x="44" y="98" width="3" height="1" fill="#000000" />
<rect x="47" y="98" width="1" height="24" fill="#2A2740" />
<rect x="102" y="98" width="1" height="24" fill="#2A2740" />
<rect x="103" y="98" width="3" height="1" fill="#000000" />
<rect x="43" y="99" width="3" height="1" fill="#000000" />
<rect x="46" y="99" width="1" height="23" fill="#2A2740" />
<rect x="103" y="99" width="1" height="23" fill="#2A2740" />
<rect x="104" y="99" width="3" height="1" fill="#000000" />
<rect x="42" y="100" width="3" height="4" fill="#000000" />
<rect x="45" y="100" width="1" height="22" fill="#2A2740" />
<rect x="104" y="100" width="1" height="22" fill="#2A2740" />
<rect x="105" y="100" width="3" height="4" fill="#000000" />
<rect x="41" y="104" width="3" height="6" fill="#000000" />
<rect x="44" y="104" width="1" height="18" fill="#2A2740" />
<rect x="105" y="104" width="1" height="18" fill="#2A2740" />
<rect x="106" y="104" width="3" height="6" fill="#000000" />
<rect x="40" y="110" width="3" height="10" fill="#000000" />
<rect x="43" y="110" width="1" height="10" fill="#2A2740" />
<rect x="106" y="110" width="1" height="10" fill="#2A2740" />
<rect x="107" y="110" width="3" height="10" fill="#000000" />
<rect x="41" y="120" width="3" height="4" fill="#000000" />
<rect x="106" y="120" width="3" height="4" fill="#000000" />
<rect x="44" y="122" width="62" height="2" fill="#000000" />
<rect x="40" y="123" width="1" height="6" fill="#000000" />
<rect x="109" y="123" width="1" height="6" fill="#000000" />
<rect x="39" y="124" width="1" height="4" fill="#000000" />
<rect x="41" y="124" width="1" height="1" fill="#000000" />
<rect x="42" y="124" width="66" height="4" fill="#2A2740" />
<rect x="108" y="124" width="1" height="1" fill="#000000" />
<rect x="110" y="124" width="1" height="4" fill="#000000" />
<rect x="38" y="125" width="1" height="2" fill="#000000" />
<rect x="41" y="125" width="1" height="2" fill="#2A2740" />
<rect x="108" y="125" width="1" height="2" fill="#2A2740" />
<rect x="111" y="125" width="1" height="2" fill="#000000" />
<rect x="41" y="127" width="1" height="3" fill="#000000" />
<rect x="108" y="127" width="1" height="3" fill="#000000" />
<rect x="42" y="128" width="66" height="3" fill="#000000" />
</svg>