<?xml version="1.0" encoding="UTF-8" ?>
<svg version="1.1" width="64" height="63" xmlns="http://www.w3.org/2000/svg" shape-rendering="crispEdges">
<rect x="21" y="7" width="4" height="2" fill="#000000" />
<rect x="39" y="7" width="4" height="2" fill="#000000" />
<rect x="20" y="8" width="1" height="2" fill="#000000" />
<rect x="25" y="8" width="1" height="2" fill="#000000" />
<rect x="38" y="8" width="1" height="2" fill="#000000" />
<rect x="43" y="8" width="1" height="2" fill="#000000" />
<rect x="19" y="9" width="1" height="2" fill="#000000" />
<rect x="21" y="9" width="4" height="2" fill="#302D4A" />
<rect x="26" y="9" width="1" height="2" fill="#000000" />
<rect x="37" y="9" width="1" height="2" fill="#000000" />
<rect x="39" y="9" width="4" height="2" fill="#302D4A" />
<rect x="44" y="9" width="1" height="2" fill="#000000" />
<rect x="18" y="10" width="1" height="6" fill="#000000" />
<rect x="20" y="10" width="1" height="5" fill="#302D4A" />
<rect x="25" y="10" width="1" height="33" fill="#222034" />
<rect x="27" y="10" width="1" height="11" fill="#000000" />
<rect x="36" y="10" width="1" height="11" fill="#000000" />
<rect x="38" y="10" width="1" height="5" fill="#302D4A" />
<rect x="43" y="10" width="1" height="6" fill="#222034" />
<rect x="45" y="10" width="1" height="6" fill="#000000" />
<rect x="17" y="11" width="1" height="4" fill="#000000" />
<rect x="19" y="11" width="1" height="4" fill="#302D4A" />
<rect x="21" y="11" width="1" height="1" fill="#302D4A" />
<rect x="22" y="11" width="3" height="32" fill="#222034" />
<rect x="26" y="11" width="1" height="4" fill="#222034" />
<rect x="28" y="11" width="1" height="4" fill="#000000" />
<rect x="35" y="11" width="1" height="4" fill="#000000" />
<rect x="37" y="11" width="1" height="4" fill="#302D4A" />
<rect x="39" y="11" width="1" height="1" fill="#302D4A" />
<rect x="40" y="11" width="3" height="25" fill="#222034" />
<rect x="44" y="11" width="1" height="4" fill="#222034" />
<rect x="46" y="11" width="1" height="4" fill="#000000" />
<rect x="21" y="12" width="1" height="31" fill="#222034" />
<rect x="39" y="12" width="1" height="26" fill="#222034" />
<rect x="8" y="14" width="4" height="2" fill="#000000" />
<rect x="52" y="14" width="4" height="2" fill="#000000" />
<rect x="7" y="15" width="1" height="2" fill="#000000" />
<rect x="12" y="15" width="1" height="2" fill="#000000" />
<rect x="19" y="15" width="1" height="14" fill="#000000" />
<rect x="20" y="15" width="1" height="1" fill="#222034" />
<rect x="26" y="15" width="1" height="2" fill="#000000" />
<rect x="37" y="15" width="1" height="2" fill="#000000" />
<rect x="38" y="15" width="1" height="24" fill="#222034" />
<rect x="44" y="15" width="1" height="14" fill="#000000" />
<rect x="51" y="15" width="1" height="2" fill="#000000" />
<rect x="56" y="15" width="1" height="2" fill="#000000" />
<rect x="6" y="16" width="1" height="2" fill="#000000" />
<rect x="8" y="16" width="4" height="2" fill="#302D4A" />
<rect x="13" y="16" width="1" height="2" fill="#000000" />
<rect x="20" y="16" width="1" height="2" fill="#000000" />
<rect x="43" y="16" width="1" height="2" fill="#000000" />
<rect x="50" y="16" width="1" height="2" fill="#000000" />
<rect x="52" y="16" width="4" height="2" fill="#302D4A" />
<rect x="57" y="16" width="1" height="2" fill="#000000" />
<rect x="5" y="17" width="1" height="6" fill="#000000" />
<rect x="7" y="17" width="1" height="5" fill="#302D4A" />
<rect x="12" y="17" width="1" height="16" fill="#222034" />
<rect x="14" y="17" width="1" height="6" fill="#000000" />
<rect x="26" y="17" width="1" height="26" fill="#222034" />
<rect x="28" y="17" width="1" height="6" fill="#000000" />
<rect x="35" y="17" width="1" height="6" fill="#000000" />
<rect x="37" y="17" width="1" height="22" fill="#222034" />
<rect x="49" y="17" width="1" height="6" fill="#000000" />
<rect x="51" y="17" width="1" height="4" fill="#302D4A" />
<rect x="56" y="17" width="1" height="3" fill="#222034" />
<rect x="58" y="17" width="1" height="6" fill="#000000" />
<rect x="4" y="18" width="1" height="4" fill="#000000" />
<rect x="6" y="18" width="1" height="4" fill="#302D4A" />
<rect x="8" y="18" width="1" height="1" fill="#302D4A" />
<rect x="9" y="18" width="3" height="8" fill="#222034" />
<rect x="13" y="18" width="1" height="18" fill="#222034" />
<rect x="15" y="18" width="1" height="6" fill="#000000" />
<rect x="18" y="18" width="1" height="9" fill="#000000" />
<rect x="20" y="18" width="1" height="25" fill="#222034" />
<rect x="43" y="18" width="1" height="17" fill="#222034" />
<rect x="45" y="18" width="1" height="9" fill="#000000" />
<rect x="48" y="18" width="1" height="6" fill="#000000" />
<rect x="50" y="18" width="1" height="3" fill="#302D4A" />
<rect x="52" y="18" width="1" height="1" fill="#302D4A" />
<rect x="53" y="18" width="3" height="3" fill="#222034" />
<rect x="57" y="18" width="1" height="2" fill="#222034" />
<rect x="59" y="18" width="1" height="4" fill="#000000" />
<rect x="8" y="19" width="1" height="5" fill="#222034" />
<rect x="52" y="19" width="1" height="6" fill="#222034" />
<rect x="56" y="20" width="2" height="2" fill="#1D1B2C" />
<rect x="27" y="21" width="1" height="22" fill="#222034" />
<rect x="29" y="21" width="1" height="4" fill="#000000" />
<rect x="34" y="21" width="1" height="4" fill="#000000" />
<rect x="36" y="21" width="1" height="18" fill="#222034" />
<rect x="50" y="21" width="2" height="4" fill="#222034" />
<rect x="53" y="21" width="2" height="1" fill="#222034" />
<rect x="55" y="21" width="1" height="3" fill="#1D1B2C" />
<rect x="6" y="22" width="1" height="2" fill="#000000" />
<rect x="7" y="22" width="1" height="1" fill="#222034" />
<rect x="53" y="22" width="1" height="1" fill="#222034" />
<rect x="54" y="22" width="1" height="4" fill="#1D1B2C" />
<rect x="56" y="22" width="1" height="1" fill="#1D1B2C" />
<rect x="57" y="22" width="1" height="2" fill="#000000" />
<rect x="7" y="23" width="1" height="3" fill="#000000" />
<rect x="14" y="23" width="1" height="15" fill="#222034" />
<rect x="16" y="23" width="1" height="2" fill="#000000" />
<rect x="28" y="23" width="1" height="20" fill="#222034" />
<rect x="30" y="23" width="1" height="4" fill="#000000" />
<rect x="33" y="23" width="1" height="4" fill="#000000" />
<rect x="35" y="23" width="1" height="17" fill="#222034" />
<rect x="47" y="23" width="1" height="2" fill="#000000" />
<rect x="49" y="23" width="1" height="4" fill="#222034" />
<rect x="53" y="23" width="1" height="6" fill="#1D1B2C" />
<rect x="56" y="23" width="1" height="3" fill="#000000" />
<rect x="8" y="24" width="1" height="5" fill="#000000" />
<rect x="15" y="24" width="1" height="16" fill="#222034" />
<rect x="17" y="24" width="1" height="2" fill="#000000" />
<rect x="46" y="24" width="1" height="2" fill="#000000" />
<rect x="48" y="24" width="1" height="4" fill="#222034" />
<rect x="55" y="24" width="1" height="5" fill="#000000" />
<rect x="16" y="25" width="1" height="17" fill="#222034" />
<rect x="29" y="25" width="1" height="18" fill="#222034" />
<rect x="31" y="25" width="2" height="5" fill="#000000" />
<rect x="34" y="25" width="1" height="15" fill="#222034" />
<rect x="47" y="25" width="1" height="5" fill="#222034" />
<rect x="50" y="25" width="1" height="2" fill="#222034" />
<rect x="51" y="25" width="2" height="6" fill="#1D1B2C" />
<rect x="9" y="26" width="1" height="5" fill="#000000" />
<rect x="10" y="26" width="2" height="3" fill="#222034" />
<rect x="17" y="26" width="1" height="17" fill="#222034" />
<rect x="46" y="26" width="1" height="6" fill="#222034" />
<rect x="54" y="26" width="1" height="5" fill="#000000" />
<rect x="18" y="27" width="1" height="16" fill="#222034" />
<rect x="30" y="27" width="1" height="14" fill="#222034" />
<rect x="33" y="27" width="1" height="13" fill="#222034" />
<rect x="45" y="27" width="1" height="6" fill="#222034" />
<rect x="49" y="27" width="2" height="9" fill="#1D1B2C" />
<rect x="48" y="28" width="1" height="12" fill="#1D1B2C" />
<rect x="10" y="29" width="1" height="4" fill="#000000" />
<rect x="11" y="29" width="1" height="2" fill="#222034" />
<rect x="19" y="29" width="1" height="14" fill="#222034" />
<rect x="44" y="29" width="1" height="6" fill="#222034" />
<rect x="53" y="29" width="1" height="4" fill="#000000" />
<rect x="31" y="30" width="2" height="10" fill="#222034" />
<rect x="47" y="30" width="1" height="12" fill="#1D1B2C" />
<rect x="11" y="31" width="1" height="5" fill="#000000" />
<rect x="51" y="31" width="1" height="2" fill="#1D1B2C" />
<rect x="52" y="31" width="1" height="5" fill="#000000" />
<rect x="46" y="32" width="1" height="11" fill="#1D1B2C" />
<rect x="12" y="33" width="1" height="5" fill="#000000" />
<rect x="45" y="33" width="1" height="10" fill="#1D1B2C" />
<rect x="51" y="33" width="1" height="5" fill="#000000" />
<rect x="43" y="35" width="2" height="8" fill="#1D1B2C" />
<rect x="13" y="36" width="1" height="4" fill="#000000" />
<rect x="40" y="36" width="2" height="1" fill="#222034" />
<rect x="42" y="36" width="1" height="7" fill="#1D1B2C" />
<rect x="49" y="36" width="1" height="2" fill="#1D1B2C" />
<rect x="50" y="36" width="1" height="4" fill="#000000" />
<rect x="40" y="37" width="1" height="1" fill="#222034" />
<rect x="41" y="37" width="1" height="6" fill="#1D1B2C" />
<rect x="14" y="38" width="1" height="4" fill="#000000" />
<rect x="39" y="38" width="2" height="5" fill="#1D1B2C" />
<rect x="49" y="38" width="1" height="4" fill="#000000" />
<rect x="36" y="39" width="3" height="4" fill="#1D1B2C" />
<rect x="15" y="40" width="1" height="6" fill="#000000" />
<rect x="31" y="40" width="1" height="1" fill="#222034" />
<rect x="32" y="40" width="4" height="3" fill="#1D1B2C" />
<rect x="48" y="40" width="1" height="6" fill="#000000" />
<rect x="30" y="41" width="2" height="2" fill="#1D1B2C" />
<rect x="16" y="42" width="1" height="3" fill="#000000" />
<rect x="47" y="42" width="1" height="3" fill="#000000" />
<rect x="17" y="43" width="30" height="2" fill="#000000" />
<rect x="14" y="44" width="1" height="2" fill="#000000" />
<rect x="49" y="44" width="1" height="2" fill="#000000" />
<rect x="13" y="45" width="1" height="2" fill="#000000" />
<rect x="16" y="45" width="32" height="1" fill="#222034" />
<rect x="50" y="45" width="1" height="2" fill="#000000" />
<rect x="12" y="46" width="1" height="2" fill="#000000" />
<rect x="14" y="46" width="2" height="1" fill="#222034" />
<rect x="16" y="46" width="32" height="1" fill="#302D4A" />
<rect x="48" y="46" width="2" height="1" fill="#222034" />
<rect x="51" y="46" width="1" height="2" fill="#000000" />
<rect x="11" y="47" width="1" height="3" fill="#000000" />
<rect x="13" y="47" width="2" height="8" fill="#222034" />
<rect x="15" y="47" width="1" height="1" fill="#302D4A" />
<rect x="16" y="47" width="32" height="8" fill="#222034" />
<rect x="48" y="47" width="1" height="1" fill="#302D4A" />
<rect x="49" y="47" width="2" height="8" fill="#222034" />
<rect x="52" y="47" width="1" height="3" fill="#000000" />
<rect x="10" y="48" width="1" height="3" fill="#000000" />
<rect x="12" y="48" width="1" height="7" fill="#222034" />
<rect x="15" y="48" width="1" height="7" fill="#222034" />
<rect x="48" y="48" width="1" height="7" fill="#222034" />
<rect x="51" y="48" width="1" height="7" fill="#222034" />
<rect x="53" y="48" width="1" height="3" fill="#000000" />
<rect x="9" y="50" width="1" height="2" fill="#000000" />
<rect x="11" y="50" width="1" height="5" fill="#222034" />
<rect x="52" y="50" width="1" height="5" fill="#222034" />
<rect x="54" y="50" width="1" height="2" fill="#000000" />
<rect x="8" y="51" width="1" height="5" fill="#000000" />
<rect x="10" y="51" width="1" height="4" fill="#222034" />
<rect x="53" y="51" width="1" height="4" fill="#222034" />
<rect x="55" y="51" width="1" height="5" fill="#000000" />
<rect x="7" y="52" width="1" height="3" fill="#000000" />
<rect x="9" y="52" width="1" height="3" fill="#222034" />
<rect x="54" y="52" width="1" height="3" fill="#222034" />
<rect x="56" y="52" width="1" height="3" fill="#000000" />
<rect x="9" y="55" width="46" height="2" fill="#000000" />
</svg>