<?xml version="1.0" encoding="UTF-8" ?>
<svg version="1.1" width="64" height="64" xmlns="http://www.w3.org/2000/svg" shape-rendering="crispEdges">
<rect x="29" y="8" width="6" height="2" fill="#BFAE91" />
<rect x="27" y="9" width="2" height="7" fill="#BFAE91" />
<rect x="35" y="9" width="2" height="7" fill="#BFAE91" />
<rect x="16" y="10" width="5" height="2" fill="#BFAE91" />
<rect x="29" y="10" width="1" height="1" fill="#BFAE91" />
<rect x="30" y="10" width="2" height="2" fill="#EED9B5" />
<rect x="32" y="10" width="2" height="12" fill="#E4D0AD" />
<rect x="34" y="10" width="1" height="1" fill="#BFAE91" />
<rect x="43" y="10" width="5" height="2" fill="#BFAE91" />
<rect x="15" y="11" width="1" height="5" fill="#BFAE91" />
<rect x="21" y="11" width="1" height="5" fill="#BFAE91" />
<rect x="29" y="11" width="1" height="2" fill="#EED9B5" />
<rect x="34" y="11" width="1" height="11" fill="#E4D0AD" />
<rect x="42" y="11" width="1" height="5" fill="#BFAE91" />
<rect x="48" y="11" width="1" height="5" fill="#BFAE91" />
<rect x="16" y="12" width="1" height="8" fill="#BFAE91" />
<rect x="17" y="12" width="3" height="2" fill="#EED9B5" />
<rect x="20" y="12" width="1" height="2" fill="#BFAE91" />
<rect x="22" y="12" width="1" height="5" fill="#BFAE91" />
<rect x="30" y="12" width="1" height="1" fill="#EED9B5" />
<rect x="31" y="12" width="1" height="10" fill="#E4D0AD" />
<rect x="41" y="12" width="1" height="5" fill="#BFAE91" />
<rect x="43" y="12" width="1" height="2" fill="#BFAE91" />
<rect x="44" y="12" width="2" height="1" fill="#EED9B5" />
<rect x="46" y="12" width="2" height="8" fill="#BFAE91" />
<rect x="29" y="13" width="2" height="9" fill="#E4D0AD" />
<rect x="44" y="13" width="1" height="2" fill="#EED9B5" />
<rect x="45" y="13" width="1" height="5" fill="#D3C1A0" />
<rect x="17" y="14" width="1" height="10" fill="#BFAE91" />
<rect x="18" y="14" width="3" height="4" fill="#EED9B5" />
<rect x="23" y="14" width="1" height="3" fill="#BFAE91" />
<rect x="40" y="14" width="1" height="3" fill="#BFAE91" />
<rect x="43" y="14" width="1" height="3" fill="#EED9B5" />
<rect x="24" y="15" width="3" height="2" fill="#BFAE91" />
<rect x="37" y="15" width="3" height="2" fill="#BFAE91" />
<rect x="44" y="15" width="1" height="7" fill="#D3C1A0" />
<rect x="21" y="16" width="1" height="1" fill="#EED9B5" />
<rect x="27" y="16" width="1" height="1" fill="#BFAE91" />
<rect x="28" y="16" width="1" height="6" fill="#E4D0AD" />
<rect x="35" y="16" width="1" height="6" fill="#E4D0AD" />
<rect x="36" y="16" width="1" height="1" fill="#BFAE91" />
<rect x="42" y="16" width="1" height="1" fill="#EED9B5" />
<rect x="21" y="17" width="7" height="5" fill="#E4D0AD" />
<rect x="36" y="17" width="7" height="2" fill="#E4D0AD" />
<rect x="43" y="17" width="1" height="6" fill="#D3C1A0" />
<rect x="18" y="18" width="1" height="7" fill="#BFAE91" />
<rect x="19" y="18" width="1" height="2" fill="#EED9B5" />
<rect x="20" y="18" width="1" height="5" fill="#E4D0AD" />
<rect x="45" y="18" width="1" height="7" fill="#BFAE91" />
<rect x="36" y="19" width="6" height="1" fill="#E4D0AD" />
<rect x="42" y="19" width="1" height="4" fill="#D3C1A0" />
<rect x="19" y="20" width="1" height="2" fill="#E4D0AD" />
<rect x="36" y="20" width="5" height="2" fill="#E4D0AD" />
<rect x="41" y="20" width="1" height="1" fill="#D3C1A0" />
<rect x="46" y="20" width="1" height="4" fill="#BFAE91" />
<rect x="41" y="21" width="1" height="1" fill="#E4D0AD" />
<rect x="19" y="22" width="1" height="22" fill="#BFAE91" />
<rect x="21" y="22" width="2" height="1" fill="#E4D0AD" />
<rect x="23" y="22" width="18" height="2" fill="#BFAE91" />
<rect x="41" y="22" width="1" height="1" fill="#D3C1A0" />
<rect x="44" y="22" width="1" height="22" fill="#BFAE91" />
<rect x="20" y="23" width="3" height="2" fill="#BFAE91" />
<rect x="41" y="23" width="3" height="2" fill="#BFAE91" />
<rect x="23" y="24" width="2" height="1" fill="#BFAE91" />
<rect x="25" y="24" width="8" height="24" fill="#E4D0AD" />
<rect x="33" y="24" width="6" height="2" fill="#D3C1A0" />
<rect x="39" y="24" width="2" height="1" fill="#BFAE91" />
<rect x="20" y="25" width="1" height="7" fill="#BFAE91" />
<rect x="21" y="25" width="4" height="23" fill="#E4D0AD" />
<rect x="39" y="25" width="4" height="8" fill="#D3C1A0" />
<rect x="43" y="25" width="1" height="7" fill="#BFAE91" />
<rect x="33" y="26" width="2" height="22" fill="#E4D0AD" />
<rect x="35" y="26" width="4" height="1" fill="#D3C1A0" />
<rect x="35" y="27" width="1" height="21" fill="#E4D0AD" />
<rect x="36" y="27" width="3" height="1" fill="#D3C1A0" />
<rect x="36" y="28" width="1" height="20" fill="#E4D0AD" />
<rect x="37" y="28" width="2" height="1" fill="#D3C1A0" />
<rect x="37" y="29" width="1" height="19" fill="#E4D0AD" />
<rect x="38" y="29" width="1" height="2" fill="#D3C1A0" />
<rect x="18" y="31" width="1" height="19" fill="#BFAE91" />
<rect x="38" y="31" width="1" height="17" fill="#E4D0AD" />
<rect x="45" y="31" width="1" height="19" fill="#BFAE91" />
<rect x="20" y="32" width="1" height="16" fill="#E4D0AD" />
<rect x="43" y="32" width="1" height="12" fill="#D3C1A0" />
<rect x="39" y="33" width="1" height="15" fill="#E4D0AD" />
<rect x="40" y="33" width="3" height="3" fill="#D3C1A0" />
<rect x="40" y="36" width="1" height="12" fill="#E4D0AD" />
<rect x="41" y="36" width="2" height="4" fill="#D3C1A0" />
<rect x="41" y="40" width="1" height="8" fill="#E4D0AD" />
<rect x="42" y="40" width="1" height="2" fill="#D3C1A0" />
<rect x="42" y="42" width="1" height="6" fill="#E4D0AD" />
<rect x="17" y="43" width="1" height="7" fill="#BFAE91" />
<rect x="46" y="43" width="1" height="7" fill="#BFAE91" />
<rect x="19" y="44" width="1" height="4" fill="#E4D0AD" />
<rect x="43" y="44" width="2" height="4" fill="#E4D0AD" />
<rect x="16" y="48" width="1" height="3" fill="#BFAE91" />
<rect x="19" y="48" width="26" height="2" fill="#BFAE91" />
<rect x="47" y="48" width="1" height="3" fill="#BFAE91" />
<rect x="15" y="49" width="1" height="3" fill="#BFAE91" />
<rect x="48" y="49" width="1" height="3" fill="#BFAE91" />
<rect x="14" y="50" width="1" height="3" fill="#BFAE91" />
<rect x="17" y="50" width="30" height="1" fill="#EED9B5" />
<rect x="49" y="50" width="1" height="3" fill="#BFAE91" />
<rect x="13" y="51" width="1" height="5" fill="#BFAE91" />
<rect x="16" y="51" width="1" height="1" fill="#EED9B5" />
<rect x="17" y="51" width="30" height="3" fill="#E4D0AD" />
<rect x="47" y="51" width="1" height="1" fill="#EED9B5" />
<rect x="50" y="51" width="1" height="5" fill="#BFAE91" />
<rect x="12" y="52" width="1" height="4" fill="#BFAE91" />
<rect x="15" y="52" width="2" height="2" fill="#E4D0AD" />
<rect x="47" y="52" width="2" height="2" fill="#E4D0AD" />
<rect x="51" y="52" width="1" height="4" fill="#BFAE91" />
<rect x="14" y="53" width="1" height="1" fill="#E4D0AD" />
<rect x="49" y="53" width="1" height="1" fill="#E4D0AD" />
<rect x="14" y="54" width="36" height="2" fill="#BFAE91" />
</svg>