<?xml version="1.0" encoding="UTF-8" ?>
<svg version="1.1" width="128" height="128" xmlns="http://www.w3.org/2000/svg" shape-rendering="crispEdges">
<rect x="58" y="16" width="12" height="4" fill="#000000" />
<rect x="54" y="18" width="4" height="14" fill="#000000" />
<rect x="70" y="18" width="4" height="14" fill="#000000" />
<rect x="32" y="20" width="10" height="4" fill="#000000" />
<rect x="58" y="20" width="2" height="2" fill="#000000" />
<rect x="60" y="20" width="4" height="4" fill="#353251" />
<rect x="64" y="20" width="4" height="24" fill="#2A2740" />
<rect x="68" y="20" width="2" height="2" fill="#000000" />
<rect x="86" y="20" width="10" height="4" fill="#000000" />
<rect x="30" y="22" width="2" height="10" fill="#000000" />
<rect x="42" y="22" width="2" height="10" fill="#000000" />
<rect x="58" y="22" width="2" height="4" fill="#353251" />
<rect x="68" y="22" width="2" height="22" fill="#2A2740" />
<rect x="84" y="22" width="2" height="10" fill="#000000" />
<rect x="96" y="22" width="2" height="10" fill="#000000" />
<rect x="32" y="24" width="2" height="16" fill="#000000" />
<rect x="34" y="24" width="6" height="4" fill="#353251" />
<rect x="40" y="24" width="2" height="4" fill="#000000" />
<rect x="44" y="24" width="2" height="10" fill="#000000" />
<rect x="60" y="24" width="2" height="2" fill="#353251" />
<rect x="62" y="24" width="2" height="20" fill="#2A2740" />
<rect x="82" y="24" width="2" height="10" fill="#000000" />
<rect x="86" y="24" width="2" height="4" fill="#000000" />
<rect x="88" y="24" width="4" height="2" fill="#353251" />
<rect x="92" y="24" width="4" height="16" fill="#000000" />
<rect x="58" y="26" width="4" height="18" fill="#2A2740" />
<rect x="88" y="26" width="2" height="4" fill="#353251" />
<rect x="90" y="26" width="2" height="10" fill="#28253C" />
<rect x="34" y="28" width="2" height="20" fill="#000000" />
<rect x="36" y="28" width="6" height="8" fill="#353251" />
<rect x="46" y="28" width="2" height="6" fill="#000000" />
<rect x="80" y="28" width="2" height="6" fill="#000000" />
<rect x="86" y="28" width="2" height="6" fill="#353251" />
<rect x="48" y="30" width="6" height="4" fill="#000000" />
<rect x="74" y="30" width="6" height="4" fill="#000000" />
<rect x="88" y="30" width="2" height="14" fill="#28253C" />
<rect x="42" y="32" width="2" height="2" fill="#353251" />
<rect x="54" y="32" width="2" height="2" fill="#000000" />
<rect x="56" y="32" width="2" height="12" fill="#2A2740" />
<rect x="70" y="32" width="2" height="12" fill="#2A2740" />
<rect x="72" y="32" width="2" height="2" fill="#000000" />
<rect x="84" y="32" width="2" height="2" fill="#353251" />
<rect x="42" y="34" width="14" height="10" fill="#2A2740" />
<rect x="72" y="34" width="14" height="4" fill="#2A2740" />
<rect x="86" y="34" width="2" height="12" fill="#28253C" />
<rect x="36" y="36" width="2" height="14" fill="#000000" />
<rect x="38" y="36" width="2" height="4" fill="#353251" />
<rect x="40" y="36" width="2" height="10" fill="#2A2740" />
<rect x="90" y="36" width="2" height="14" fill="#000000" />
<rect x="72" y="38" width="12" height="2" fill="#2A2740" />
<rect x="84" y="38" width="2" height="8" fill="#28253C" />
<rect x="38" y="40" width="2" height="4" fill="#2A2740" />
<rect x="72" y="40" width="10" height="4" fill="#2A2740" />
<rect x="82" y="40" width="2" height="2" fill="#28253C" />
<rect x="92" y="40" width="2" height="8" fill="#000000" />
<rect x="82" y="42" width="2" height="2" fill="#2A2740" />
<rect x="38" y="44" width="2" height="44" fill="#000000" />
<rect x="42" y="44" width="4" height="2" fill="#2A2740" />
<rect x="46" y="44" width="36" height="4" fill="#000000" />
<rect x="82" y="44" width="2" height="2" fill="#28253C" />
<rect x="88" y="44" width="2" height="44" fill="#000000" />
<rect x="40" y="46" width="6" height="4" fill="#000000" />
<rect x="82" y="46" width="6" height="4" fill="#000000" />
<rect x="46" y="48" width="4" height="2" fill="#000000" />
<rect x="50" y="48" width="16" height="48" fill="#2A2740" />
<rect x="66" y="48" width="12" height="4" fill="#28253C" />
<rect x="78" y="48" width="4" height="2" fill="#000000" />
<rect x="40" y="50" width="2" height="14" fill="#000000" />
<rect x="42" y="50" width="8" height="46" fill="#2A2740" />
<rect x="78" y="50" width="8" height="16" fill="#28253C" />
<rect x="86" y="50" width="2" height="14" fill="#000000" />
<rect x="66" y="52" width="4" height="44" fill="#2A2740" />
<rect x="70" y="52" width="8" height="2" fill="#28253C" />
<rect x="70" y="54" width="2" height="42" fill="#2A2740" />
<rect x="72" y="54" width="6" height="2" fill="#28253C" />
<rect x="72" y="56" width="2" height="40" fill="#2A2740" />
<rect x="74" y="56" width="4" height="2" fill="#28253C" />
<rect x="74" y="58" width="2" height="38" fill="#2A2740" />
<rect x="76" y="58" width="2" height="4" fill="#28253C" />
<rect x="36" y="62" width="2" height="38" fill="#000000" />
<rect x="76" y="62" width="2" height="34" fill="#2A2740" />
<rect x="90" y="62" width="2" height="38" fill="#000000" />
<rect x="40" y="64" width="2" height="32" fill="#2A2740" />
<rect x="86" y="64" width="2" height="24" fill="#28253C" />
<rect x="78" y="66" width="2" height="30" fill="#2A2740" />
<rect x="80" y="66" width="6" height="6" fill="#28253C" />
<rect x="80" y="72" width="2" height="24" fill="#2A2740" />
<rect x="82" y="72" width="4" height="8" fill="#28253C" />
<rect x="82" y="80" width="2" height="16" fill="#2A2740" />
<rect x="84" y="80" width="2" height="4" fill="#28253C" />
<rect x="84" y="84" width="2" height="12" fill="#2A2740" />
<rect x="34" y="86" width="2" height="14" fill="#000000" />
<rect x="92" y="86" width="2" height="14" fill="#000000" />
<rect x="38" y="88" width="2" height="8" fill="#2A2740" />
<rect x="86" y="88" width="4" height="8" fill="#2A2740" />
<rect x="32" y="96" width="2" height="6" fill="#000000" />
<rect x="38" y="96" width="52" height="4" fill="#000000" />
<rect x="94" y="96" width="2" height="6" fill="#000000" />
<rect x="30" y="98" width="2" height="6" fill="#000000" />
<rect x="96" y="98" width="2" height="6" fill="#000000" />
<rect x="28" y="100" width="2" height="6" fill="#000000" />
<rect x="34" y="100" width="60" height="2" fill="#353251" />
<rect x="98" y="100" width="2" height="6" fill="#000000" />
<rect x="26" y="102" width="2" height="10" fill="#000000" />
<rect x="32" y="102" width="2" height="2" fill="#353251" />
<rect x="34" y="102" width="60" height="6" fill="#2A2740" />
<rect x="94" y="102" width="2" height="2" fill="#353251" />
<rect x="100" y="102" width="2" height="10" fill="#000000" />
<rect x="24" y="104" width="2" height="8" fill="#000000" />
<rect x="30" y="104" width="4" height="4" fill="#2A2740" />
<rect x="94" y="104" width="4" height="4" fill="#2A2740" />
<rect x="102" y="104" width="2" height="8" fill="#000000" />
<rect x="28" y="106" width="2" height="2" fill="#2A2740" />
<rect x="98" y="106" width="2" height="2" fill="#2A2740" />
<rect x="28" y="108" width="72" height="4" fill="#000000" />
</svg>